<svg id="Layer_1" xmlns="http://www.w3.org/2000/svg" width="220" height="50" viewBox="0 0 227.01 20.78"><defs><style>.cls-1{fill:#fff;}.cls-2{fill:#a12e8c;}</style></defs><g><path class="cls-1" d="M20.76,16.62v4.16H10.38C4.65,20.78,0,16.13,0,10.39H0C0,4.66,4.65,.01,10.38,.01h10.38V4.17H10.58c-3.44,0-6.24,2.8-6.22,6.24h0c0,3.44,2.8,6.22,6.22,6.22h10.18Z"/><path class="cls-1" d="M24.91,.01h20.76V4.17H24.91V.01Zm0,8.3h20.76v4.16H24.91v-4.16Zm0,12.46v-4.16h20.76v4.16H24.91Z"/><path class="cls-1" d="M70.59,16.62v4.16h-20.76V.01h4.16V16.62h16.61Z"/><path class="cls-1" d="M74.75,.01h20.76V4.17h-20.76V.01Zm0,8.3h20.76v4.16h-20.76v-4.16Zm0,12.46v-4.16h20.76v4.16h-20.76Z"/><path class="cls-1" d="M106.58,12.46c-4.61,0-6.92-2.08-6.92-6.22S101.97,.01,106.58,.01h13.85V4.17h-13.15c-2.31,0-3.46,.69-3.46,2.08s1.16,2.08,3.46,2.08h6.22c4.61,0,6.92,2.08,6.92,6.22s-2.31,6.22-6.92,6.22h-13.85v-4.16h13.15c2.31,0,3.46-.69,3.46-2.08s-1.16-2.08-3.46-2.08h-6.22Z"/><path class="cls-1" d="M132.88,4.16h-8.29V0h20.75V4.16h-8.3V20.76h-4.16V4.16Z"/><path class="cls-1" d="M153.65,20.78h-4.16V.01h4.16V20.78Z"/><path class="cls-1" d="M174.25,20.78l-6.75-15.54-6.74,15.54h-4.53L165.25,.01h4.52l9.01,20.76h-4.52Z"/><path class="cls-1" d="M202.09,16.62v4.16h-20.76V.01h4.16V16.62h16.61Z"/><path class="cls-1" d="M213.16,12.46c-4.61,0-6.92-2.08-6.92-6.22S208.55,.01,213.16,.01h13.85V4.17h-13.15c-2.31,0-3.46,.69-3.46,2.08s1.16,2.08,3.46,2.08h6.22c4.61,0,6.92,2.08,6.92,6.22s-2.31,6.22-6.92,6.22h-13.85v-4.16h13.15c2.31,0,3.46-.69,3.46-2.08s-1.16-2.08-3.46-2.08h-6.22Z"/></g><rect class="cls-1" x="24.91" y=".01" width="4.16" height="20.76"/><rect class="cls-1" x="74.75" y=".01" width="4.16" height="20.76"/><path class="cls-2" d="M172.26,20.74l-.07,.04h-9.4l-.07-.04,2.46-1.05c.66-.29,1.17-.87,1.41-1.62l.91-4.04,.91,4.04c.24,.75,.75,1.35,1.41,1.62l2.46,1.05h-.01Z"/></svg>