<?xml version="1.0" encoding="UTF-8"?><svg id="Layer_1" xmlns="http://www.w3.org/2000/svg" viewBox="0 0 257.55 23.57"><defs><style>.cls-1{fill:#fff;}.cls-2{fill:#a12e8c;}</style></defs><g><path class="cls-1" d="M23.56,18.85v4.72H11.78C5.27,23.57,0,18.3,0,11.79H0C0,5.29,5.27,.01,11.78,.01h11.78V4.73H12.01c-3.9,0-7.07,3.17-7.06,7.07h0c0,3.9,3.17,7.06,7.06,7.06h11.55Z"/><path class="cls-1" d="M28.26,.01h23.56V4.73H28.26V.01Zm0,9.42h23.56v4.72H28.26v-4.72Zm0,14.14v-4.72h23.56v4.72H28.26Z"/><path class="cls-1" d="M80.09,18.85v4.72h-23.56V.01h4.72V18.85h18.84Z"/><path class="cls-1" d="M84.8,.01h23.56V4.73h-23.56V.01Zm0,9.42h23.56v4.72h-23.56v-4.72Zm0,14.14v-4.72h23.56v4.72h-23.56Z"/><path class="cls-1" d="M120.91,14.14c-5.23,0-7.85-2.36-7.85-7.06S115.68,.01,120.91,.01h15.71V4.73h-14.92c-2.62,0-3.93,.79-3.93,2.36s1.31,2.36,3.93,2.36h7.06c5.23,0,7.85,2.36,7.85,7.06s-2.62,7.06-7.85,7.06h-15.71v-4.72h14.92c2.62,0,3.93-.79,3.93-2.36s-1.31-2.36-3.93-2.36h-7.06Z"/><path class="cls-1" d="M150.76,4.72h-9.41V0h23.54V4.72h-9.42V23.56h-4.72V4.72Z"/><path class="cls-1" d="M174.31,23.57h-4.72V.01h4.72V23.57Z"/><path class="cls-1" d="M197.69,23.57l-7.66-17.63-7.64,17.63h-5.14L187.47,.01h5.12l10.22,23.56h-5.12Z"/><path class="cls-1" d="M229.27,18.85v4.72h-23.56V.01h4.72V18.85h18.84Z"/><path class="cls-1" d="M241.84,14.14c-5.23,0-7.85-2.36-7.85-7.06S236.61,.01,241.84,.01h15.71V4.73h-14.92c-2.62,0-3.93,.79-3.93,2.36s1.31,2.36,3.93,2.36h7.06c5.23,0,7.85,2.36,7.85,7.06s-2.62,7.06-7.85,7.06h-15.71v-4.72h14.92c2.62,0,3.93-.79,3.93-2.36s-1.31-2.36-3.93-2.36h-7.06Z"/></g><rect class="cls-1" x="28.26" y=".01" width="4.72" height="23.56"/><rect class="cls-1" x="84.8" y=".01" width="4.72" height="23.56"/><path class="cls-2" d="M195.43,23.53l-.08,.04h-10.67l-.08-.04,2.79-1.19c.75-.33,1.33-.99,1.6-1.84l1.03-4.58,1.03,4.58c.27,.85,.85,1.53,1.6,1.84l2.79,1.19h-.01Z"/></svg>