<?xml version="1.0" encoding="UTF-8"?><svg id="Layer_1" xmlns="http://www.w3.org/2000/svg" width="190.02" height="36.39" viewBox="0 0 190.02 17.39"><defs><style>.cls-1{fill:#fff;}.cls-2{fill:#a12e8c;}</style></defs><g><path class="cls-1" d="M17.38,13.91v3.48H8.69C3.89,17.39,0,13.5,0,8.7H0C0,3.9,3.89,0,8.69,0h8.69V3.49H8.86c-2.88,0-5.22,2.34-5.21,5.22h0c0,2.88,2.34,5.21,5.21,5.21h8.52Z"/><path class="cls-1" d="M20.85,0h17.38V3.49H20.85V0Zm0,6.95h17.38v3.48H20.85v-3.48Zm0,10.43v-3.48h17.38v3.48H20.85Z"/><path class="cls-1" d="M59.09,13.91v3.48h-17.38V0h3.48V13.91h13.9Z"/><path class="cls-1" d="M62.57,0h17.38V3.49h-17.38V0Zm0,6.95h17.38v3.48h-17.38v-3.48Zm0,10.43v-3.48h17.38v3.48h-17.38Z"/><path class="cls-1" d="M89.21,10.43c-3.86,0-5.79-1.74-5.79-5.21S85.35,0,89.21,0h11.59V3.49h-11.01c-1.93,0-2.9,.58-2.9,1.74s.97,1.74,2.9,1.74h5.21c3.86,0,5.79,1.74,5.79,5.21s-1.93,5.21-5.79,5.21h-11.59v-3.48h11.01c1.93,0,2.9-.58,2.9-1.74s-.97-1.74-2.9-1.74h-5.21Z"/><path class="cls-1" d="M111.23,3.48h-6.94V0h17.37V3.48h-6.95v13.9h-3.48V3.48Z"/><path class="cls-1" d="M128.61,17.39h-3.48V0h3.48V17.39Z"/><path class="cls-1" d="M145.86,17.39l-5.65-13.01-5.64,13.01h-3.79L138.32,0h3.78l7.54,17.38h-3.78Z"/><path class="cls-1" d="M169.16,13.91v3.48h-17.38V0h3.48V13.91h13.9Z"/><path class="cls-1" d="M178.43,10.43c-3.86,0-5.79-1.74-5.79-5.21S174.57,0,178.43,0h11.59V3.49h-11.01c-1.93,0-2.9,.58-2.9,1.74s.97,1.74,2.9,1.74h5.21c3.86,0,5.79,1.74,5.79,5.21s-1.93,5.21-5.79,5.21h-11.59v-3.48h11.01c1.93,0,2.9-.58,2.9-1.74s-.97-1.74-2.9-1.74h-5.21Z"/></g><rect class="cls-1" x="20.85" y="0" width="3.48" height="17.38"/><rect class="cls-1" x="62.57" y="0" width="3.48" height="17.38"/><path class="cls-2" d="M144.19,17.36l-.06,.03h-7.87l-.06-.03,2.06-.88c.55-.24,.98-.73,1.18-1.36l.76-3.38,.76,3.38c.2,.63,.63,1.13,1.18,1.36l2.06,.88h0Z"/></svg>